<svg xmlns="http://www.w3.org/2000/svg" width="15.752" height="15.753" viewBox="0 0 15.752 15.753"><defs><style>.a{fill:#00aeef;fill-rule:evenodd;}</style></defs><g transform="translate(-10.123 -10.123)"><path class="a" d="M18.8,25.546a1.125,1.125,0,0,0,0-1.593L12.841,18,18.8,12.046A1.126,1.126,0,0,0,17.2,10.453l-6.75,6.75a1.125,1.125,0,0,0,0,1.593l6.75,6.75a1.125,1.125,0,0,0,1.593,0Z"/><path class="a" d="M25.875,18a1.125,1.125,0,0,0-1.125-1.125H13.5a1.125,1.125,0,0,0,0,2.25H24.75A1.125,1.125,0,0,0,25.875,18Z"/></g></svg>