<svg xmlns="http://www.w3.org/2000/svg" width="15.752" height="15.753" viewBox="0 0 15.752 15.753"><defs><style>.a{fill:#00aeef;fill-rule:evenodd;}</style></defs><g transform="translate(-10.125 -10.123)"><path class="a" d="M17.2,25.546a1.125,1.125,0,0,1,0-1.593L23.159,18,17.2,12.046A1.126,1.126,0,0,1,18.8,10.453l6.75,6.75a1.125,1.125,0,0,1,0,1.593l-6.75,6.75a1.125,1.125,0,0,1-1.593,0Z"/><path class="a" d="M10.125,18a1.125,1.125,0,0,1,1.125-1.125H22.5a1.125,1.125,0,0,1,0,2.25H11.25A1.125,1.125,0,0,1,10.125,18Z"/></g></svg>