<svg xmlns="http://www.w3.org/2000/svg" width="36.512" height="48.717" viewBox="0 0 36.512 48.717"><defs><style>.a{fill:#b9e6fb;}.b{fill:#28bef3;}.c{fill:#77d0f7;}.d{fill:#00a1ed;}</style></defs><g transform="translate(18.256 24.359)"><g transform="translate(-18.256 -24.359)"><path class="a" d="M13.18,32.584l-7.98,7.9V11.1Z" transform="translate(-5.2 -11.1)"/><path class="b" d="M16.08,516.8H5.2l7.98-7.9Z" transform="translate(-5.2 -487.416)"/><path class="b" d="M525.682,11.1l-8.015,21.484L511,26.016Z" transform="translate(-489.17 -11.1)"/><path class="c" d="M446.456,692,428.2,711.3l7.242-19.3Z" transform="translate(-409.944 -662.613)"/><path class="c" d="M23.465,711.331,5.2,692H16.08Z" transform="translate(-5.2 -662.613)"/><path class="b" d="M271.918,692l-7.233,19.331L257.3,692Z" transform="translate(-246.42 -662.613)"/><path class="b" d="M607.014,516.8H596l3-7.9Z" transform="translate(-570.502 -487.416)"/><path class="d" d="M210.618,363.269l-3,7.9H193l-2.9-7.9,6.633-6.569h7.216Z" transform="translate(-182.12 -341.784)"/><path class="a" d="M673.515,11.1V40.487l-8.015-7.9Z" transform="translate(-637.002 -11.1)"/><path class="b" d="M19.813,26.016,13.18,32.584,5.2,11.1Z" transform="translate(-5.2 -11.1)"/></g></g></svg>